# xmcd
# 
# Track frame offsets:
#     150
#     20423
#     37119
#     59791
#     73309
#     84058
#     105375
#     127797
#     136433
#     155737
#     174176
#     186852
#     206779
#     222417
#     242316
#     255135
#     273362
#     289776
# 
# Disc length: 4049
# 
# Revision: 4
# Processed by: cddbd v1.5.2PL0 Copyright (c) Steve Scherf et al.
# Submitted via: fre:ac v1.0.31
# 
DISCID=010fcf12
DTITLE=Peter Wohlleben - Das geheime Netzwerk der Natur
DYEAR=2017
DGENRE=Hörbuch
TTITLE0=Kapitel 18 - Leichenschmaus
TTITLE1=Kapitel 19 - Leichenschmaus
TTITLE2=Kapitel 20 - Leichenschmaus
TTITLE3=Kapitel 21 - Leichenschmaus
TTITLE4=Kapitel 22 - Spot an!
TTITLE5=Kapitel 23 - Spot an!
TTITLE6=Kapitel 24 - Spot an!
TTITLE7=Kapitel 25 - Spot an!
TTITLE8=Kapitel 26 - Spot an!
TTITLE9=Kapitel 27 - Spot an!
TTITLE10=Kapitel 28 - Spot an!
TTITLE11=Kapitel 29 - Sabotierte Schinkenproduktion
TTITLE12=Kapitel 30 - Sabotierte Schinkenproduktion
TTITLE13=Kapitel 31 - Sabotierte Schinkenproduktion
TTITLE14=Kapitel 32 - Sabotierte Schinkenproduktion
TTITLE15=Kapitel 33 - Sabotierte Schinkenproduktion
TTITLE16=Kapitel 34 - Sabotierte Schinkenproduktion
TTITLE17=Kapitel 35 - Sabotierte Schinkenproduktion
EXTD=
EXTT0=
EXTT1=
EXTT2=
EXTT3=
EXTT4=
EXTT5=
EXTT6=
EXTT7=
EXTT8=
EXTT9=
EXTT10=
EXTT11=
EXTT12=
EXTT13=
EXTT14=
EXTT15=
EXTT16=
EXTT17=
PLAYORDER=
